<svg xmlns="http://www.w3.org/2000/svg" width="48" height="48" viewBox="0 0 48 48">
  <circle cx="24" cy="24" r="22" fill="#E60023"/>
  <path d="M24 10c-7.7 0-14 6.3-14 14 0 5.9 3.7 11 9 13-.1-1.1 0-2.5.3-3.7l1.9-8s-.5-1-.5-2.4c0-2.2 1.3-3.9 2.9-3.9 1.4 0 2 1 2 2.3 0 1.4-.9 3.4-1.3 5.3-.4 1.6.8 2.9 2.4 2.9 2.9 0 4.8-3.7 4.8-8 0-3.3-2.2-5.8-6.2-5.8-4.5 0-7.4 3.4-7.4 7.2 0 1.3.4 2.2 1 2.9.3.3.3.5.2.8l-.3 1.3c-.1.4-.4.5-.7.4-2-.8-2.9-3-2.9-5.5 0-4.1 3.4-9 10.2-9 5.5 0 9.1 4 9.1 8.2 0 5.6-3.1 9.9-7.7 9.9-1.5 0-3-.8-3.5-1.8l-1 3.9c-.3 1.2-1 2.5-1.6 3.4 1.4.4 2.9.6 4.4.6 7.7 0 14-6.3 14-14S31.7 10 24 10z" fill="#fff"/>
</svg>

